<mxfile host="app.diagrams.net" agent="Mozilla/5.0 (Windows NT 10.0; Win64; x64) AppleWebKit/537.36 (KHTML, like Gecko) Chrome/124.0.0.0 Safari/537.36 Edg/124.0.0.0" version="24.7.6">
  <diagram name="第 1 页" id="2d6CohSRX0e6HN7yO4Lr">
    <mxGraphModel dx="1159" dy="2418" grid="1" gridSize="10" guides="1" tooltips="1" connect="1" arrows="1" fold="1" page="1" pageScale="1" pageWidth="583" pageHeight="827" math="0" shadow="0">
      <root>
        <mxCell id="0" />
        <mxCell id="1" parent="0" />
        <mxCell id="Qt5C2lJePND-xmZlz8fH-1" value="QSGVideoNode" style="swimlane;fontStyle=1;align=center;verticalAlign=top;childLayout=stackLayout;horizontal=1;startSize=26;horizontalStack=0;resizeParent=1;resizeParentMax=0;resizeLast=0;collapsible=1;marginBottom=0;whiteSpace=wrap;html=1;" parent="1" vertex="1">
          <mxGeometry x="120" y="-1450" width="160" height="52" as="geometry" />
        </mxCell>
        <mxCell id="Qt5C2lJePND-xmZlz8fH-2" value="QSGVideoMaterial" style="text;strokeColor=none;fillColor=none;align=left;verticalAlign=top;spacingLeft=4;spacingRight=4;overflow=hidden;rotatable=0;points=[[0,0.5],[1,0.5]];portConstraint=eastwest;whiteSpace=wrap;html=1;" parent="Qt5C2lJePND-xmZlz8fH-1" vertex="1">
          <mxGeometry y="26" width="160" height="26" as="geometry" />
        </mxCell>
        <mxCell id="Qt5C2lJePND-xmZlz8fH-14" style="edgeStyle=orthogonalEdgeStyle;rounded=0;orthogonalLoop=1;jettySize=auto;html=1;" parent="1" source="Qt5C2lJePND-xmZlz8fH-9" target="Qt5C2lJePND-xmZlz8fH-5" edge="1">
          <mxGeometry relative="1" as="geometry" />
        </mxCell>
        <mxCell id="Qt5C2lJePND-xmZlz8fH-9" value="QSGMaterial" style="swimlane;fontStyle=1;align=center;verticalAlign=top;childLayout=stackLayout;horizontal=1;startSize=26;horizontalStack=0;resizeParent=1;resizeParentMax=0;resizeLast=0;collapsible=1;marginBottom=0;whiteSpace=wrap;html=1;" parent="1" vertex="1">
          <mxGeometry x="510" y="-1575" width="160" height="90" as="geometry" />
        </mxCell>
        <mxCell id="Qt5C2lJePND-xmZlz8fH-10" value="+ field: type" style="text;strokeColor=none;fillColor=none;align=left;verticalAlign=top;spacingLeft=4;spacingRight=4;overflow=hidden;rotatable=0;points=[[0,0.5],[1,0.5]];portConstraint=eastwest;whiteSpace=wrap;html=1;" parent="Qt5C2lJePND-xmZlz8fH-9" vertex="1">
          <mxGeometry y="26" width="160" height="26" as="geometry" />
        </mxCell>
        <mxCell id="Qt5C2lJePND-xmZlz8fH-11" value="" style="line;strokeWidth=1;fillColor=none;align=left;verticalAlign=middle;spacingTop=-1;spacingLeft=3;spacingRight=3;rotatable=0;labelPosition=right;points=[];portConstraint=eastwest;strokeColor=inherit;" parent="Qt5C2lJePND-xmZlz8fH-9" vertex="1">
          <mxGeometry y="52" width="160" height="8" as="geometry" />
        </mxCell>
        <mxCell id="Qt5C2lJePND-xmZlz8fH-12" value="+ method(type): type" style="text;strokeColor=none;fillColor=none;align=left;verticalAlign=top;spacingLeft=4;spacingRight=4;overflow=hidden;rotatable=0;points=[[0,0.5],[1,0.5]];portConstraint=eastwest;whiteSpace=wrap;html=1;" parent="Qt5C2lJePND-xmZlz8fH-9" vertex="1">
          <mxGeometry y="60" width="160" height="30" as="geometry" />
        </mxCell>
        <mxCell id="Qt5C2lJePND-xmZlz8fH-16" value="QSGVideoMaterialRhiShader" style="swimlane;fontStyle=1;align=center;verticalAlign=top;childLayout=stackLayout;horizontal=1;startSize=26;horizontalStack=0;resizeParent=1;resizeParentMax=0;resizeLast=0;collapsible=1;marginBottom=0;whiteSpace=wrap;html=1;" parent="1" vertex="1">
          <mxGeometry x="337" y="-1085" width="350" height="86" as="geometry" />
        </mxCell>
        <mxCell id="Qt5C2lJePND-xmZlz8fH-17" value="updateUniformData" style="text;strokeColor=none;fillColor=none;align=left;verticalAlign=top;spacingLeft=4;spacingRight=4;overflow=hidden;rotatable=0;points=[[0,0.5],[1,0.5]];portConstraint=eastwest;whiteSpace=wrap;html=1;" parent="Qt5C2lJePND-xmZlz8fH-16" vertex="1">
          <mxGeometry y="26" width="350" height="26" as="geometry" />
        </mxCell>
        <mxCell id="Qt5C2lJePND-xmZlz8fH-18" value="" style="line;strokeWidth=1;fillColor=none;align=left;verticalAlign=middle;spacingTop=-1;spacingLeft=3;spacingRight=3;rotatable=0;labelPosition=right;points=[];portConstraint=eastwest;strokeColor=inherit;" parent="Qt5C2lJePND-xmZlz8fH-16" vertex="1">
          <mxGeometry y="52" width="350" height="8" as="geometry" />
        </mxCell>
        <mxCell id="Qt5C2lJePND-xmZlz8fH-19" value="updateSampledImage" style="text;strokeColor=none;fillColor=none;align=left;verticalAlign=top;spacingLeft=4;spacingRight=4;overflow=hidden;rotatable=0;points=[[0,0.5],[1,0.5]];portConstraint=eastwest;whiteSpace=wrap;html=1;" parent="Qt5C2lJePND-xmZlz8fH-16" vertex="1">
          <mxGeometry y="60" width="350" height="26" as="geometry" />
        </mxCell>
        <mxCell id="Qt5C2lJePND-xmZlz8fH-21" style="edgeStyle=orthogonalEdgeStyle;rounded=0;orthogonalLoop=1;jettySize=auto;html=1;exitX=0.5;exitY=1;exitDx=0;exitDy=0;entryX=0.5;entryY=0;entryDx=0;entryDy=0;" parent="1" source="Qt5C2lJePND-xmZlz8fH-20" target="Qt5C2lJePND-xmZlz8fH-16" edge="1">
          <mxGeometry relative="1" as="geometry" />
        </mxCell>
        <mxCell id="Qt5C2lJePND-xmZlz8fH-20" value="QSGMaterialShader" style="html=1;whiteSpace=wrap;" parent="1" vertex="1">
          <mxGeometry x="434" y="-1165" width="110" height="50" as="geometry" />
        </mxCell>
        <mxCell id="Qt5C2lJePND-xmZlz8fH-25" style="edgeStyle=orthogonalEdgeStyle;rounded=0;orthogonalLoop=1;jettySize=auto;html=1;entryX=1;entryY=0.25;entryDx=0;entryDy=0;exitX=1;exitY=0.5;exitDx=0;exitDy=0;fillColor=#ffe6cc;strokeColor=#d79b00;" parent="1" source="Qt5C2lJePND-xmZlz8fH-15" target="Qt5C2lJePND-xmZlz8fH-16" edge="1">
          <mxGeometry relative="1" as="geometry" />
        </mxCell>
        <mxCell id="Qt5C2lJePND-xmZlz8fH-27" style="edgeStyle=orthogonalEdgeStyle;rounded=0;orthogonalLoop=1;jettySize=auto;html=1;exitX=0;exitY=0.5;exitDx=0;exitDy=0;entryX=0;entryY=0.5;entryDx=0;entryDy=0;fillColor=#ffe6cc;strokeColor=#d79b00;" parent="1" source="Qt5C2lJePND-xmZlz8fH-17" target="Qt5C2lJePND-xmZlz8fH-26" edge="1">
          <mxGeometry relative="1" as="geometry" />
        </mxCell>
        <mxCell id="Qt5C2lJePND-xmZlz8fH-34" value="" style="edgeStyle=orthogonalEdgeStyle;rounded=0;orthogonalLoop=1;jettySize=auto;html=1;fillColor=#ffe6cc;strokeColor=#d79b00;" parent="1" source="Qt5C2lJePND-xmZlz8fH-29" target="Qt5C2lJePND-xmZlz8fH-30" edge="1">
          <mxGeometry relative="1" as="geometry" />
        </mxCell>
        <mxCell id="Qt5C2lJePND-xmZlz8fH-29" value="createTextures&lt;div&gt;将qvideoframe中的本地纹理转换为rhi纹理&lt;/div&gt;&lt;div&gt;再用rhi纹理构建QSGVideoTexture&lt;/div&gt;" style="rounded=0;whiteSpace=wrap;html=1;" parent="1" vertex="1">
          <mxGeometry x="120" y="-950" width="180" height="90" as="geometry" />
        </mxCell>
        <mxCell id="Qt5C2lJePND-xmZlz8fH-33" value="" style="edgeStyle=orthogonalEdgeStyle;rounded=0;orthogonalLoop=1;jettySize=auto;html=1;fillColor=#ffe6cc;strokeColor=#d79b00;" parent="1" source="Qt5C2lJePND-xmZlz8fH-30" target="Qt5C2lJePND-xmZlz8fH-31" edge="1">
          <mxGeometry relative="1" as="geometry" />
        </mxCell>
        <mxCell id="Qt5C2lJePND-xmZlz8fH-30" value="createTexturesFromHandles" style="rounded=0;whiteSpace=wrap;html=1;" parent="1" vertex="1">
          <mxGeometry x="360" y="-920" width="170" height="30" as="geometry" />
        </mxCell>
        <mxCell id="Qt5C2lJePND-xmZlz8fH-31" value="createTextureFromHandle&lt;div&gt;从qvideframe的videobuffer中拿到native纹理句柄并通过此句柄构建一个rhi纹理&lt;/div&gt;" style="rounded=0;whiteSpace=wrap;html=1;" parent="1" vertex="1">
          <mxGeometry x="594" y="-975" width="250" height="140" as="geometry" />
        </mxCell>
        <mxCell id="HpQHqFJFhctL3u0hSOUU-1" value="&lt;h1 style=&quot;margin-top: 0px;&quot;&gt;&lt;span style=&quot;font-size: 12px; font-weight: 400;&quot;&gt;QVideoFrameTextures&lt;/span&gt;&lt;br&gt;&lt;/h1&gt;&lt;div&gt;&lt;span style=&quot;font-size: 12px; font-weight: 400;&quot;&gt;保存N个rhi纹理&lt;/span&gt;&lt;/div&gt;" style="text;html=1;whiteSpace=wrap;overflow=hidden;rounded=0;" vertex="1" parent="1">
          <mxGeometry x="843" y="-1645" width="180" height="120" as="geometry" />
        </mxCell>
        <mxCell id="HpQHqFJFhctL3u0hSOUU-3" value="&lt;h1 style=&quot;margin-top: 0px;&quot;&gt;QAbstractVideoBuffer&lt;br&gt;&lt;/h1&gt;&lt;p&gt;存有native纹理&lt;/p&gt;" style="text;html=1;whiteSpace=wrap;overflow=hidden;rounded=0;" vertex="1" parent="1">
          <mxGeometry x="840" y="-1575" width="270" height="80" as="geometry" />
        </mxCell>
        <mxCell id="HpQHqFJFhctL3u0hSOUU-4" value="&lt;h1 style=&quot;margin-top: 0px;&quot;&gt;QVideoFrame&lt;/h1&gt;&lt;div&gt;存有&lt;span style=&quot;background-color: initial;&quot;&gt;&lt;font style=&quot;font-size: 12px;&quot;&gt;QAbstractVideoBuffer&lt;/font&gt;&lt;/span&gt;&lt;/div&gt;&lt;div&gt;&lt;br&gt;&lt;/div&gt;" style="text;html=1;whiteSpace=wrap;overflow=hidden;rounded=0;" vertex="1" parent="1">
          <mxGeometry x="844" y="-1495" width="180" height="70" as="geometry" />
        </mxCell>
        <mxCell id="HpQHqFJFhctL3u0hSOUU-5" value="QQuickVideoOutput" style="swimlane;fontStyle=1;align=center;verticalAlign=top;childLayout=stackLayout;horizontal=1;startSize=26;horizontalStack=0;resizeParent=1;resizeParentMax=0;resizeLast=0;collapsible=1;marginBottom=0;whiteSpace=wrap;html=1;" vertex="1" parent="1">
          <mxGeometry x="120" y="-1585" width="160" height="86" as="geometry" />
        </mxCell>
        <mxCell id="HpQHqFJFhctL3u0hSOUU-6" value="QVideoSink *m_sink" style="text;strokeColor=none;fillColor=none;align=left;verticalAlign=top;spacingLeft=4;spacingRight=4;overflow=hidden;rotatable=0;points=[[0,0.5],[1,0.5]];portConstraint=eastwest;whiteSpace=wrap;html=1;" vertex="1" parent="HpQHqFJFhctL3u0hSOUU-5">
          <mxGeometry y="26" width="160" height="26" as="geometry" />
        </mxCell>
        <mxCell id="HpQHqFJFhctL3u0hSOUU-7" value="" style="line;strokeWidth=1;fillColor=none;align=left;verticalAlign=middle;spacingTop=-1;spacingLeft=3;spacingRight=3;rotatable=0;labelPosition=right;points=[];portConstraint=eastwest;strokeColor=inherit;" vertex="1" parent="HpQHqFJFhctL3u0hSOUU-5">
          <mxGeometry y="52" width="160" height="8" as="geometry" />
        </mxCell>
        <mxCell id="HpQHqFJFhctL3u0hSOUU-8" value="updatePaintNode" style="text;strokeColor=none;fillColor=none;align=left;verticalAlign=top;spacingLeft=4;spacingRight=4;overflow=hidden;rotatable=0;points=[[0,0.5],[1,0.5]];portConstraint=eastwest;whiteSpace=wrap;html=1;" vertex="1" parent="HpQHqFJFhctL3u0hSOUU-5">
          <mxGeometry y="60" width="160" height="26" as="geometry" />
        </mxCell>
        <mxCell id="HpQHqFJFhctL3u0hSOUU-9" style="edgeStyle=orthogonalEdgeStyle;rounded=0;orthogonalLoop=1;jettySize=auto;html=1;exitX=0;exitY=0.5;exitDx=0;exitDy=0;" edge="1" parent="1" source="HpQHqFJFhctL3u0hSOUU-8" target="Qt5C2lJePND-xmZlz8fH-1">
          <mxGeometry relative="1" as="geometry" />
        </mxCell>
        <mxCell id="HpQHqFJFhctL3u0hSOUU-12" style="edgeStyle=orthogonalEdgeStyle;rounded=0;orthogonalLoop=1;jettySize=auto;html=1;entryX=0;entryY=0.25;entryDx=0;entryDy=0;" edge="1" parent="1" source="HpQHqFJFhctL3u0hSOUU-6" target="HpQHqFJFhctL3u0hSOUU-14">
          <mxGeometry relative="1" as="geometry">
            <mxPoint x="145" y="-1289" as="targetPoint" />
          </mxGeometry>
        </mxCell>
        <mxCell id="HpQHqFJFhctL3u0hSOUU-13" value="" style="group" vertex="1" connectable="0" parent="1">
          <mxGeometry x="337" y="-1405" width="506" height="152" as="geometry" />
        </mxCell>
        <mxCell id="Qt5C2lJePND-xmZlz8fH-5" value="QSGVideoMaterial" style="swimlane;fontStyle=1;align=center;verticalAlign=top;childLayout=stackLayout;horizontal=1;startSize=26;horizontalStack=0;resizeParent=1;resizeParentMax=0;resizeLast=0;collapsible=1;marginBottom=0;whiteSpace=wrap;html=1;" parent="HpQHqFJFhctL3u0hSOUU-13" vertex="1">
          <mxGeometry width="506" height="94" as="geometry">
            <mxRectangle x="400" y="120" width="140" height="30" as="alternateBounds" />
          </mxGeometry>
        </mxCell>
        <mxCell id="Qt5C2lJePND-xmZlz8fH-6" value="&lt;div&gt;std::array&amp;lt;QSGVideoTexture, 3&amp;gt; m_textures;&lt;/div&gt;&lt;div&gt;std::unique_ptr&amp;lt;QVideoFrameTextures&amp;gt; m_videoFrameTextures;&lt;/div&gt;" style="text;strokeColor=none;fillColor=none;align=left;verticalAlign=top;spacingLeft=4;spacingRight=4;overflow=hidden;rotatable=0;points=[[0,0.5],[1,0.5]];portConstraint=eastwest;whiteSpace=wrap;html=1;" parent="Qt5C2lJePND-xmZlz8fH-5" vertex="1">
          <mxGeometry y="26" width="506" height="34" as="geometry" />
        </mxCell>
        <mxCell id="Qt5C2lJePND-xmZlz8fH-7" value="" style="line;strokeWidth=1;fillColor=none;align=left;verticalAlign=middle;spacingTop=-1;spacingLeft=3;spacingRight=3;rotatable=0;labelPosition=right;points=[];portConstraint=eastwest;strokeColor=inherit;" parent="Qt5C2lJePND-xmZlz8fH-5" vertex="1">
          <mxGeometry y="60" width="506" height="8" as="geometry" />
        </mxCell>
        <mxCell id="Qt5C2lJePND-xmZlz8fH-8" value="QSGMaterialType *type() const override" style="text;strokeColor=none;fillColor=none;align=left;verticalAlign=top;spacingLeft=4;spacingRight=4;overflow=hidden;rotatable=0;points=[[0,0.5],[1,0.5]];portConstraint=eastwest;whiteSpace=wrap;html=1;" parent="Qt5C2lJePND-xmZlz8fH-5" vertex="1">
          <mxGeometry y="68" width="506" height="26" as="geometry" />
        </mxCell>
        <mxCell id="Qt5C2lJePND-xmZlz8fH-15" value="QSGMaterialShader *createShader(QSGRendererInterface::RenderMode) const override" style="text;strokeColor=default;fillColor=none;align=left;verticalAlign=top;spacingLeft=4;spacingRight=4;overflow=hidden;rotatable=0;points=[[0,0.5],[1,0.5]];portConstraint=eastwest;whiteSpace=wrap;html=1;" parent="HpQHqFJFhctL3u0hSOUU-13" vertex="1">
          <mxGeometry y="94" width="506" height="28" as="geometry" />
        </mxCell>
        <mxCell id="Qt5C2lJePND-xmZlz8fH-26" value="updateTextures" style="text;strokeColor=default;fillColor=none;align=left;verticalAlign=top;spacingLeft=4;spacingRight=4;overflow=hidden;rotatable=0;points=[[0,0.5],[1,0.5]];portConstraint=eastwest;whiteSpace=wrap;html=1;" parent="HpQHqFJFhctL3u0hSOUU-13" vertex="1">
          <mxGeometry y="122" width="506" height="30" as="geometry" />
        </mxCell>
        <mxCell id="HpQHqFJFhctL3u0hSOUU-14" value="&lt;span style=&quot;font-weight: 400; text-align: left;&quot;&gt;QVideoSink&amp;nbsp;&lt;/span&gt;" style="swimlane;fontStyle=1;align=center;verticalAlign=top;childLayout=stackLayout;horizontal=1;startSize=26;horizontalStack=0;resizeParent=1;resizeParentMax=0;resizeLast=0;collapsible=1;marginBottom=0;whiteSpace=wrap;html=1;" vertex="1" parent="1">
          <mxGeometry x="110" y="-1339" width="160" height="86" as="geometry" />
        </mxCell>
        <mxCell id="HpQHqFJFhctL3u0hSOUU-15" value="&lt;span style=&quot;text-align: center;&quot;&gt;QFFmpegVideoSink&lt;/span&gt;" style="text;strokeColor=none;fillColor=none;align=left;verticalAlign=top;spacingLeft=4;spacingRight=4;overflow=hidden;rotatable=0;points=[[0,0.5],[1,0.5]];portConstraint=eastwest;whiteSpace=wrap;html=1;" vertex="1" parent="HpQHqFJFhctL3u0hSOUU-14">
          <mxGeometry y="26" width="160" height="26" as="geometry" />
        </mxCell>
        <mxCell id="HpQHqFJFhctL3u0hSOUU-16" value="" style="line;strokeWidth=1;fillColor=none;align=left;verticalAlign=middle;spacingTop=-1;spacingLeft=3;spacingRight=3;rotatable=0;labelPosition=right;points=[];portConstraint=eastwest;strokeColor=inherit;" vertex="1" parent="HpQHqFJFhctL3u0hSOUU-14">
          <mxGeometry y="52" width="160" height="8" as="geometry" />
        </mxCell>
        <mxCell id="HpQHqFJFhctL3u0hSOUU-17" value="+ method(type): type" style="text;strokeColor=none;fillColor=none;align=left;verticalAlign=top;spacingLeft=4;spacingRight=4;overflow=hidden;rotatable=0;points=[[0,0.5],[1,0.5]];portConstraint=eastwest;whiteSpace=wrap;html=1;" vertex="1" parent="HpQHqFJFhctL3u0hSOUU-14">
          <mxGeometry y="60" width="160" height="26" as="geometry" />
        </mxCell>
        <mxCell id="HpQHqFJFhctL3u0hSOUU-21" style="edgeStyle=orthogonalEdgeStyle;rounded=0;orthogonalLoop=1;jettySize=auto;html=1;exitX=0.5;exitY=1;exitDx=0;exitDy=0;entryX=0.5;entryY=0;entryDx=0;entryDy=0;" edge="1" parent="1" source="HpQHqFJFhctL3u0hSOUU-18" target="HpQHqFJFhctL3u0hSOUU-19">
          <mxGeometry relative="1" as="geometry" />
        </mxCell>
        <mxCell id="HpQHqFJFhctL3u0hSOUU-18" value="&lt;div&gt;QQuickVideoOutput::QQuickVideoOutput&amp;nbsp;&lt;/div&gt;" style="rounded=0;whiteSpace=wrap;html=1;" vertex="1" parent="1">
          <mxGeometry x="1090" y="-1399" width="230" height="29" as="geometry" />
        </mxCell>
        <mxCell id="HpQHqFJFhctL3u0hSOUU-22" style="edgeStyle=orthogonalEdgeStyle;rounded=0;orthogonalLoop=1;jettySize=auto;html=1;exitX=0.5;exitY=1;exitDx=0;exitDy=0;" edge="1" parent="1" source="HpQHqFJFhctL3u0hSOUU-19" target="HpQHqFJFhctL3u0hSOUU-20">
          <mxGeometry relative="1" as="geometry" />
        </mxCell>
        <mxCell id="HpQHqFJFhctL3u0hSOUU-19" value="&lt;div&gt;new QVideoSink::QVideoSink&lt;/div&gt;" style="rounded=0;whiteSpace=wrap;html=1;" vertex="1" parent="1">
          <mxGeometry x="1105" y="-1314.25" width="200" height="30" as="geometry" />
        </mxCell>
        <mxCell id="HpQHqFJFhctL3u0hSOUU-27" style="edgeStyle=orthogonalEdgeStyle;rounded=0;orthogonalLoop=1;jettySize=auto;html=1;exitX=0.5;exitY=1;exitDx=0;exitDy=0;entryX=0.5;entryY=0;entryDx=0;entryDy=0;dashed=1;" edge="1" parent="1" source="HpQHqFJFhctL3u0hSOUU-20" target="HpQHqFJFhctL3u0hSOUU-26">
          <mxGeometry relative="1" as="geometry" />
        </mxCell>
        <mxCell id="HpQHqFJFhctL3u0hSOUU-20" value="new QFFmpegVideoSink" style="rounded=0;whiteSpace=wrap;html=1;" vertex="1" parent="1">
          <mxGeometry x="1125" y="-1240" width="160" height="30" as="geometry" />
        </mxCell>
        <mxCell id="HpQHqFJFhctL3u0hSOUU-29" style="edgeStyle=orthogonalEdgeStyle;rounded=0;orthogonalLoop=1;jettySize=auto;html=1;exitX=0.5;exitY=1;exitDx=0;exitDy=0;entryX=0.5;entryY=0;entryDx=0;entryDy=0;" edge="1" parent="1" source="HpQHqFJFhctL3u0hSOUU-24" target="HpQHqFJFhctL3u0hSOUU-25">
          <mxGeometry relative="1" as="geometry" />
        </mxCell>
        <mxCell id="HpQHqFJFhctL3u0hSOUU-24" value="QVideoSink::setRhi" style="rounded=0;whiteSpace=wrap;html=1;" vertex="1" parent="1">
          <mxGeometry x="1140" y="-1109" width="130" height="30" as="geometry" />
        </mxCell>
        <mxCell id="HpQHqFJFhctL3u0hSOUU-31" style="edgeStyle=orthogonalEdgeStyle;rounded=0;orthogonalLoop=1;jettySize=auto;html=1;exitX=0.5;exitY=1;exitDx=0;exitDy=0;entryX=0.5;entryY=0;entryDx=0;entryDy=0;" edge="1" parent="1" source="HpQHqFJFhctL3u0hSOUU-25" target="HpQHqFJFhctL3u0hSOUU-30">
          <mxGeometry relative="1" as="geometry" />
        </mxCell>
        <mxCell id="HpQHqFJFhctL3u0hSOUU-25" value="QFFmpegVideoSink::setRhi" style="rounded=0;whiteSpace=wrap;html=1;" vertex="1" parent="1">
          <mxGeometry x="1120" y="-1057" width="170" height="30" as="geometry" />
        </mxCell>
        <mxCell id="HpQHqFJFhctL3u0hSOUU-28" style="edgeStyle=orthogonalEdgeStyle;rounded=0;orthogonalLoop=1;jettySize=auto;html=1;exitX=0.5;exitY=1;exitDx=0;exitDy=0;entryX=0.5;entryY=0;entryDx=0;entryDy=0;" edge="1" parent="1" source="HpQHqFJFhctL3u0hSOUU-26" target="HpQHqFJFhctL3u0hSOUU-24">
          <mxGeometry relative="1" as="geometry" />
        </mxCell>
        <mxCell id="HpQHqFJFhctL3u0hSOUU-26" value="QQuickVideoOutput::_q_sceneGraphInitialized&lt;div&gt;QQuickVideoOutput::initRhiForSink&lt;br&gt;&lt;/div&gt;" style="rounded=0;whiteSpace=wrap;html=1;" vertex="1" parent="1">
          <mxGeometry x="1070" y="-1190" width="270" height="60" as="geometry" />
        </mxCell>
        <mxCell id="HpQHqFJFhctL3u0hSOUU-30" value="QFFmpeg::TextureConverter(rhi)" style="rounded=0;whiteSpace=wrap;html=1;" vertex="1" parent="1">
          <mxGeometry x="1112.5" y="-999" width="185" height="30" as="geometry" />
        </mxCell>
        <mxCell id="HpQHqFJFhctL3u0hSOUU-41" value="初始化&lt;div&gt;帧传递&lt;/div&gt;&lt;div&gt;纹理转换&lt;/div&gt;" style="text;html=1;align=center;verticalAlign=middle;whiteSpace=wrap;rounded=0;" vertex="1" parent="1">
          <mxGeometry x="1340" y="-1605" width="170" height="75" as="geometry" />
        </mxCell>
        <mxCell id="HpQHqFJFhctL3u0hSOUU-42" value="QQuickVideoOutput" style="swimlane;fontStyle=1;align=center;verticalAlign=top;childLayout=stackLayout;horizontal=1;startSize=26;horizontalStack=0;resizeParent=1;resizeParentMax=0;resizeLast=0;collapsible=1;marginBottom=0;whiteSpace=wrap;html=1;" vertex="1" parent="1">
          <mxGeometry x="1710" y="-1326" width="160" height="86" as="geometry" />
        </mxCell>
        <mxCell id="HpQHqFJFhctL3u0hSOUU-43" value="+ field: type" style="text;strokeColor=none;fillColor=none;align=left;verticalAlign=top;spacingLeft=4;spacingRight=4;overflow=hidden;rotatable=0;points=[[0,0.5],[1,0.5]];portConstraint=eastwest;whiteSpace=wrap;html=1;" vertex="1" parent="HpQHqFJFhctL3u0hSOUU-42">
          <mxGeometry y="26" width="160" height="26" as="geometry" />
        </mxCell>
        <mxCell id="HpQHqFJFhctL3u0hSOUU-44" value="" style="line;strokeWidth=1;fillColor=none;align=left;verticalAlign=middle;spacingTop=-1;spacingLeft=3;spacingRight=3;rotatable=0;labelPosition=right;points=[];portConstraint=eastwest;strokeColor=inherit;" vertex="1" parent="HpQHqFJFhctL3u0hSOUU-42">
          <mxGeometry y="52" width="160" height="8" as="geometry" />
        </mxCell>
        <mxCell id="HpQHqFJFhctL3u0hSOUU-45" value="setFrame" style="text;strokeColor=none;fillColor=none;align=left;verticalAlign=top;spacingLeft=4;spacingRight=4;overflow=hidden;rotatable=0;points=[[0,0.5],[1,0.5]];portConstraint=eastwest;whiteSpace=wrap;html=1;" vertex="1" parent="HpQHqFJFhctL3u0hSOUU-42">
          <mxGeometry y="60" width="160" height="26" as="geometry" />
        </mxCell>
        <mxCell id="HpQHqFJFhctL3u0hSOUU-46" value="QFFmpegVideoSink" style="swimlane;fontStyle=1;align=center;verticalAlign=top;childLayout=stackLayout;horizontal=1;startSize=26;horizontalStack=0;resizeParent=1;resizeParentMax=0;resizeLast=0;collapsible=1;marginBottom=0;whiteSpace=wrap;html=1;" vertex="1" parent="1">
          <mxGeometry x="1450" y="-1399" width="190" height="86" as="geometry" />
        </mxCell>
        <mxCell id="HpQHqFJFhctL3u0hSOUU-47" value="QFFmpeg::TextureConverter" style="text;strokeColor=none;fillColor=none;align=left;verticalAlign=top;spacingLeft=4;spacingRight=4;overflow=hidden;rotatable=0;points=[[0,0.5],[1,0.5]];portConstraint=eastwest;whiteSpace=wrap;html=1;" vertex="1" parent="HpQHqFJFhctL3u0hSOUU-46">
          <mxGeometry y="26" width="190" height="26" as="geometry" />
        </mxCell>
        <mxCell id="HpQHqFJFhctL3u0hSOUU-48" value="" style="line;strokeWidth=1;fillColor=none;align=left;verticalAlign=middle;spacingTop=-1;spacingLeft=3;spacingRight=3;rotatable=0;labelPosition=right;points=[];portConstraint=eastwest;strokeColor=inherit;" vertex="1" parent="HpQHqFJFhctL3u0hSOUU-46">
          <mxGeometry y="52" width="190" height="8" as="geometry" />
        </mxCell>
        <mxCell id="HpQHqFJFhctL3u0hSOUU-49" value="setVideoFrame" style="text;strokeColor=none;fillColor=none;align=left;verticalAlign=top;spacingLeft=4;spacingRight=4;overflow=hidden;rotatable=0;points=[[0,0.5],[1,0.5]];portConstraint=eastwest;whiteSpace=wrap;html=1;" vertex="1" parent="HpQHqFJFhctL3u0hSOUU-46">
          <mxGeometry y="60" width="190" height="26" as="geometry" />
        </mxCell>
        <mxCell id="HpQHqFJFhctL3u0hSOUU-51" value="QPlatformVideoSink" style="swimlane;fontStyle=0;childLayout=stackLayout;horizontal=1;startSize=26;fillColor=none;horizontalStack=0;resizeParent=1;resizeParentMax=0;resizeLast=0;collapsible=1;marginBottom=0;whiteSpace=wrap;html=1;" vertex="1" parent="1">
          <mxGeometry x="1450" y="-1508" width="140" height="104" as="geometry">
            <mxRectangle x="1450" y="-1508" width="150" height="30" as="alternateBounds" />
          </mxGeometry>
        </mxCell>
        <mxCell id="HpQHqFJFhctL3u0hSOUU-53" value="&lt;span style=&quot;text-align: center;&quot;&gt;QVideoSink&lt;/span&gt;" style="text;strokeColor=none;fillColor=none;align=left;verticalAlign=top;spacingLeft=4;spacingRight=4;overflow=hidden;rotatable=0;points=[[0,0.5],[1,0.5]];portConstraint=eastwest;whiteSpace=wrap;html=1;" vertex="1" parent="HpQHqFJFhctL3u0hSOUU-51">
          <mxGeometry y="26" width="140" height="26" as="geometry" />
        </mxCell>
        <mxCell id="HpQHqFJFhctL3u0hSOUU-52" value="setVideoFrame" style="text;strokeColor=none;fillColor=none;align=left;verticalAlign=top;spacingLeft=4;spacingRight=4;overflow=hidden;rotatable=0;points=[[0,0.5],[1,0.5]];portConstraint=eastwest;whiteSpace=wrap;html=1;" vertex="1" parent="HpQHqFJFhctL3u0hSOUU-51">
          <mxGeometry y="52" width="140" height="26" as="geometry" />
        </mxCell>
        <mxCell id="HpQHqFJFhctL3u0hSOUU-54" value="+ field: type" style="text;strokeColor=none;fillColor=none;align=left;verticalAlign=top;spacingLeft=4;spacingRight=4;overflow=hidden;rotatable=0;points=[[0,0.5],[1,0.5]];portConstraint=eastwest;whiteSpace=wrap;html=1;" vertex="1" parent="HpQHqFJFhctL3u0hSOUU-51">
          <mxGeometry y="78" width="140" height="26" as="geometry" />
        </mxCell>
        <mxCell id="HpQHqFJFhctL3u0hSOUU-55" style="edgeStyle=orthogonalEdgeStyle;rounded=0;orthogonalLoop=1;jettySize=auto;html=1;exitX=0;exitY=0.5;exitDx=0;exitDy=0;entryX=0;entryY=0.5;entryDx=0;entryDy=0;" edge="1" parent="1" source="HpQHqFJFhctL3u0hSOUU-49" target="HpQHqFJFhctL3u0hSOUU-52">
          <mxGeometry relative="1" as="geometry" />
        </mxCell>
        <mxCell id="HpQHqFJFhctL3u0hSOUU-56" value="&lt;span style=&quot;font-weight: 400;&quot;&gt;QVideoSink&lt;/span&gt;" style="swimlane;fontStyle=1;align=center;verticalAlign=top;childLayout=stackLayout;horizontal=1;startSize=26;horizontalStack=0;resizeParent=1;resizeParentMax=0;resizeLast=0;collapsible=1;marginBottom=0;whiteSpace=wrap;html=1;" vertex="1" parent="1">
          <mxGeometry x="1700" y="-1508" width="160" height="86" as="geometry" />
        </mxCell>
        <mxCell id="HpQHqFJFhctL3u0hSOUU-57" value="+ field: type" style="text;strokeColor=none;fillColor=none;align=left;verticalAlign=top;spacingLeft=4;spacingRight=4;overflow=hidden;rotatable=0;points=[[0,0.5],[1,0.5]];portConstraint=eastwest;whiteSpace=wrap;html=1;" vertex="1" parent="HpQHqFJFhctL3u0hSOUU-56">
          <mxGeometry y="26" width="160" height="26" as="geometry" />
        </mxCell>
        <mxCell id="HpQHqFJFhctL3u0hSOUU-58" value="" style="line;strokeWidth=1;fillColor=none;align=left;verticalAlign=middle;spacingTop=-1;spacingLeft=3;spacingRight=3;rotatable=0;labelPosition=right;points=[];portConstraint=eastwest;strokeColor=inherit;" vertex="1" parent="HpQHqFJFhctL3u0hSOUU-56">
          <mxGeometry y="52" width="160" height="8" as="geometry" />
        </mxCell>
        <mxCell id="HpQHqFJFhctL3u0hSOUU-59" value="videoFrameChanged" style="text;strokeColor=none;fillColor=none;align=left;verticalAlign=top;spacingLeft=4;spacingRight=4;overflow=hidden;rotatable=0;points=[[0,0.5],[1,0.5]];portConstraint=eastwest;whiteSpace=wrap;html=1;" vertex="1" parent="HpQHqFJFhctL3u0hSOUU-56">
          <mxGeometry y="60" width="160" height="26" as="geometry" />
        </mxCell>
        <mxCell id="HpQHqFJFhctL3u0hSOUU-60" style="edgeStyle=orthogonalEdgeStyle;rounded=0;orthogonalLoop=1;jettySize=auto;html=1;exitX=1;exitY=0.5;exitDx=0;exitDy=0;entryX=0;entryY=0.5;entryDx=0;entryDy=0;" edge="1" parent="1" source="HpQHqFJFhctL3u0hSOUU-52" target="HpQHqFJFhctL3u0hSOUU-59">
          <mxGeometry relative="1" as="geometry" />
        </mxCell>
        <mxCell id="HpQHqFJFhctL3u0hSOUU-61" style="edgeStyle=orthogonalEdgeStyle;rounded=0;orthogonalLoop=1;jettySize=auto;html=1;exitX=1;exitY=0.5;exitDx=0;exitDy=0;entryX=1;entryY=0.5;entryDx=0;entryDy=0;" edge="1" parent="1" source="HpQHqFJFhctL3u0hSOUU-59" target="HpQHqFJFhctL3u0hSOUU-45">
          <mxGeometry relative="1" as="geometry" />
        </mxCell>
        <mxCell id="HpQHqFJFhctL3u0hSOUU-62" value="QFFmpegVideoBuffer" style="swimlane;fontStyle=1;align=center;verticalAlign=top;childLayout=stackLayout;horizontal=1;startSize=26;horizontalStack=0;resizeParent=1;resizeParentMax=0;resizeLast=0;collapsible=1;marginBottom=0;whiteSpace=wrap;html=1;" vertex="1" parent="1">
          <mxGeometry x="1550" y="-1147" width="190" height="86" as="geometry" />
        </mxCell>
        <mxCell id="HpQHqFJFhctL3u0hSOUU-63" value="QFFmpeg::TextureConverter" style="text;strokeColor=none;fillColor=none;align=left;verticalAlign=top;spacingLeft=4;spacingRight=4;overflow=hidden;rotatable=0;points=[[0,0.5],[1,0.5]];portConstraint=eastwest;whiteSpace=wrap;html=1;" vertex="1" parent="HpQHqFJFhctL3u0hSOUU-62">
          <mxGeometry y="26" width="190" height="26" as="geometry" />
        </mxCell>
        <mxCell id="HpQHqFJFhctL3u0hSOUU-64" value="" style="line;strokeWidth=1;fillColor=none;align=left;verticalAlign=middle;spacingTop=-1;spacingLeft=3;spacingRight=3;rotatable=0;labelPosition=right;points=[];portConstraint=eastwest;strokeColor=inherit;" vertex="1" parent="HpQHqFJFhctL3u0hSOUU-62">
          <mxGeometry y="52" width="190" height="8" as="geometry" />
        </mxCell>
        <mxCell id="HpQHqFJFhctL3u0hSOUU-65" value="AVFrameUPtr" style="text;strokeColor=none;fillColor=none;align=left;verticalAlign=top;spacingLeft=4;spacingRight=4;overflow=hidden;rotatable=0;points=[[0,0.5],[1,0.5]];portConstraint=eastwest;whiteSpace=wrap;html=1;" vertex="1" parent="HpQHqFJFhctL3u0hSOUU-62">
          <mxGeometry y="60" width="190" height="26" as="geometry" />
        </mxCell>
        <mxCell id="HpQHqFJFhctL3u0hSOUU-66" value="QVideoFrame" style="swimlane;fontStyle=1;align=center;verticalAlign=top;childLayout=stackLayout;horizontal=1;startSize=26;horizontalStack=0;resizeParent=1;resizeParentMax=0;resizeLast=0;collapsible=1;marginBottom=0;whiteSpace=wrap;html=1;" vertex="1" parent="1">
          <mxGeometry x="1860" y="-1160" width="160" height="86" as="geometry" />
        </mxCell>
        <mxCell id="HpQHqFJFhctL3u0hSOUU-67" value="QAbstractVideoBuffer" style="text;strokeColor=none;fillColor=none;align=left;verticalAlign=top;spacingLeft=4;spacingRight=4;overflow=hidden;rotatable=0;points=[[0,0.5],[1,0.5]];portConstraint=eastwest;whiteSpace=wrap;html=1;" vertex="1" parent="HpQHqFJFhctL3u0hSOUU-66">
          <mxGeometry y="26" width="160" height="26" as="geometry" />
        </mxCell>
        <mxCell id="HpQHqFJFhctL3u0hSOUU-68" value="" style="line;strokeWidth=1;fillColor=none;align=left;verticalAlign=middle;spacingTop=-1;spacingLeft=3;spacingRight=3;rotatable=0;labelPosition=right;points=[];portConstraint=eastwest;strokeColor=inherit;" vertex="1" parent="HpQHqFJFhctL3u0hSOUU-66">
          <mxGeometry y="52" width="160" height="8" as="geometry" />
        </mxCell>
        <mxCell id="HpQHqFJFhctL3u0hSOUU-69" value="+ method(type): type" style="text;strokeColor=none;fillColor=none;align=left;verticalAlign=top;spacingLeft=4;spacingRight=4;overflow=hidden;rotatable=0;points=[[0,0.5],[1,0.5]];portConstraint=eastwest;whiteSpace=wrap;html=1;" vertex="1" parent="HpQHqFJFhctL3u0hSOUU-66">
          <mxGeometry y="60" width="160" height="26" as="geometry" />
        </mxCell>
        <mxCell id="HpQHqFJFhctL3u0hSOUU-70" style="edgeStyle=orthogonalEdgeStyle;rounded=0;orthogonalLoop=1;jettySize=auto;html=1;exitX=0;exitY=0.5;exitDx=0;exitDy=0;entryX=1;entryY=0.093;entryDx=0;entryDy=0;entryPerimeter=0;" edge="1" parent="1" source="HpQHqFJFhctL3u0hSOUU-67" target="HpQHqFJFhctL3u0hSOUU-62">
          <mxGeometry relative="1" as="geometry" />
        </mxCell>
        <mxCell id="HpQHqFJFhctL3u0hSOUU-76" style="edgeStyle=orthogonalEdgeStyle;rounded=0;orthogonalLoop=1;jettySize=auto;html=1;exitX=1;exitY=0.5;exitDx=0;exitDy=0;" edge="1" parent="1" source="HpQHqFJFhctL3u0hSOUU-71" target="HpQHqFJFhctL3u0hSOUU-72">
          <mxGeometry relative="1" as="geometry" />
        </mxCell>
        <mxCell id="HpQHqFJFhctL3u0hSOUU-71" value="QFFmpeg::StreamDecoder" style="rounded=0;whiteSpace=wrap;html=1;" vertex="1" parent="1">
          <mxGeometry x="1540" y="-1027" width="190" height="60" as="geometry" />
        </mxCell>
        <mxCell id="HpQHqFJFhctL3u0hSOUU-72" value="VideoRenderer::render(Frame frame)&lt;div&gt;VideoRenderer::renderInternal&lt;br&gt;&lt;/div&gt;&lt;div&gt;构建一个QFFmpegVideoBuffer&lt;/div&gt;&lt;div&gt;再用QFFmpegVideoBuffer构建QVideoFrame&lt;/div&gt;" style="rounded=0;whiteSpace=wrap;html=1;" vertex="1" parent="1">
          <mxGeometry x="1830" y="-1027" width="270" height="60" as="geometry" />
        </mxCell>
        <mxCell id="HpQHqFJFhctL3u0hSOUU-73" value="PlaybackEngineObject" style="html=1;whiteSpace=wrap;" vertex="1" parent="1">
          <mxGeometry x="2041" y="-1290" width="110" height="50" as="geometry" />
        </mxCell>
        <mxCell id="HpQHqFJFhctL3u0hSOUU-74" value="Renderer" style="html=1;whiteSpace=wrap;" vertex="1" parent="1">
          <mxGeometry x="2041" y="-1240" width="110" height="50" as="geometry" />
        </mxCell>
        <mxCell id="HpQHqFJFhctL3u0hSOUU-75" value="VideoRenderer" style="html=1;whiteSpace=wrap;" vertex="1" parent="1">
          <mxGeometry x="2041" y="-1190" width="110" height="50" as="geometry" />
        </mxCell>
      </root>
    </mxGraphModel>
  </diagram>
</mxfile>
